#N canvas 32 323 1306 632 10;
#X msg 9 429 \; pd dsp 1;
#X msg 8 466 \; pd dsp 0;
#X obj 236 -3 catch~ bus1;
#X obj 236 23 gain~;
#X obj 107 -10 *~ 1;
#X text 18 -110 burke - 4 stereo inputs - consecutive into first 4
busses - (-5db was testing level);
#X text 20 -148 ben = 5 mono throws from his patch \, bus1 \, bus2
\, bus3 \, bus4 \, bus5 - bus5 should be panned hard center all gains
at -23;
#X text 22 -68 seth +15db on all 8 ins \, scenes 0-4;
#X msg 346 -9 0;
#X obj 107 -33 adc~ 9;
#X obj 236 217 spatialization_bus~ 1;
#X obj 614 -149 tgl 15 0 empty empty empty 17 7 0 10 -262144 -1 -1
1 1;
#X obj 613 -109 s vbap_clock;
#X obj 614 -128 metro 100;
#X connect 2 0 3 0;
#X connect 3 0 10 0;
#X connect 4 0 3 0;
#X connect 8 0 3 1;
#X connect 9 0 4 0;
#X connect 11 0 13 0;
#X connect 13 0 12 0;
