#N canvas 144 52 1453 922 10;
#X text 181 460 2 - Decoding for a set of loudspeakers;
#X obj 17 239 c.canvasinfos;
#X obj 17 210 c.loadmess;
#X text 138 191 1 - Encoding in the spherical harmonics domain;
#X text 91 595 Representation of the contribution of 20 loudspeakers
;
#X obj 421 521 hoa.3d.meter~ @size 231 231 @fontname Helvetica @fontweight
normal @fontslant roman @fontsize 11 @receive (null) @send (null) @channels
20 @angles 180 69.0948 159.095 -0 90 20.9052 135 35.2644 135 -35.2644
180 -69.0948 20.9052 -0 90 -20.9052 45 35.2644 45 -35.2644 0 69.0948
200.905 -0 270 20.9052 225 35.2644 225 -35.2644 0 -69.0948 339.095
-0 270 -20.9052 315 35.2644 315 -35.2644 @offset 0 0 0 @rotation anti-clockwise
@view top @vectors none @interval 50 @bgcolor 0.76 0.76 0.76 1 @bdcolor
0.7 0.7 0.7 1 @coldcolor 0 0.6 0 0.8 @tepidcolor 0.6 0.73 0 0.8 @warmcolor
0.85 0.85 0 0.8 @hotcolor 1 0.6 0 0.8 @overcolor 1 0 0 0.8 @energycolor
0 0 1 0.8 @velocitycolor 1 0 0 0.8;
#X obj 419 190 hoa.3d.encoder~ 3 --------------------;
#X obj 547 162 c.number~ @size 53 17 @fontname "Helvetica" @fontweight
"normal" @fontslant "roman" @fontsize 11 @receive "(null)" @send "(null)"
@interval 50 @decimal 6 @bgcolor 0.75 0.75 0.75 1 @bdcolor 0.5 0.5
0.5 1 @textcolor 0 0 0 1;
#X obj 531 114 hoa.pi~ 2;
#X text 557 134 azimuth;
#X text 1441 239 elevation;
#X obj 1432 -86 c.number @size 53 17 @fontname "Helvetica" @fontweight
"normal" @fontslant "roman" @fontsize 11 @receive "(null)" @send "(null)"
@presetname "(null)" @min "(null)" @max "(null)" @minmax "(null)" "(null)"
@decimal 6 @bgcolor 0.75 0.75 0.75 1 @bdcolor 0.5 0.5 0.5 1 @textcolor
0 0 0 1;
#X obj 775 -77 c.number @size 53 17 @fontname "Helvetica" @fontweight
"normal" @fontslant "roman" @fontsize 11 @receive "(null)" @send "(null)"
@presetname "(null)" @min "(null)" @max "(null)" @minmax "(null)" "(null)"
@decimal 6 @bgcolor 0.75 0.75 0.75 1 @bdcolor 0.5 0.5 0.5 1 @textcolor
0 0 0 1;
#X obj 1435 269 c.number~ @size 53 17 @fontname "Helvetica" @fontweight
"normal" @fontslant "roman" @fontsize 11 @receive "(null)" @send "(null)"
@interval 50 @decimal 6 @bgcolor 0.75 0.75 0.75 1 @bdcolor 0.5 0.5
0.5 1 @textcolor 0 0 0 1;
#X obj 775 -51 phasor~ -0.5;
#X text 555 145 (-π & π);
#X text 1433 251 (-π/2 & π/2);
#X obj 1421 221 hoa.pi~ 0.5;
#X obj 1432 -60 hoa.tri~ 0.05;
#X obj 1423 420 c.meter~ @size 13 85 @fontname "Helvetica" @fontweight
"normal" @fontslant "roman" @fontsize 11 @receive "(null)" @send "(null)"
@interval 50 @bgcolor 0.75 0.75 0.75 1 @bdcolor 0.5 0.5 0.5 1 @coldcolor
0 0.6 0 0.8 @tepidcolor 0.6 0.73 0 0.8 @warmcolor 0.85 0.85 0 0.8 @hotcolor
1 0.6 0 0.8 @overcolor 1 0 0 0.8;
#X obj 1423 375 hoa.3d.decoder~ 3 binaural -----------------;
#X obj 1423 530 hoa.dac~ 1:2 -------------------------------;
#X obj 1684 424 c.meter~ @size 13 85 @fontname "Helvetica" @fontweight
"normal" @fontslant "roman" @fontsize 11 @receive "(null)" @send "(null)"
@interval 50 @bgcolor 0.75 0.75 0.75 1 @bdcolor 0.5 0.5 0.5 1 @coldcolor
0 0.6 0 0.8 @tepidcolor 0.6 0.73 0 0.8 @warmcolor 0.85 0.85 0 0.8 @hotcolor
1 0.6 0 0.8 @overcolor 1 0 0 0.8;
#X text 1443 401 Binaural mode is used for headphones.;
#X obj 800 600 hoa.connect;
#X obj 800 572 bng 15 250 50 0 empty empty empty 17 7 0 10 -262144
-1 -1;
#X obj 800 533 key;
#X obj 800 552 sel 32;
#X obj 1378 -30 c.number~ @size 53 17 @fontname "Helvetica" @fontweight
"normal" @fontslant "roman" @fontsize 11 @receive "(null)" @send "(null)"
@interval 50 @decimal 6 @bgcolor 0.75 0.75 0.75 1 @bdcolor 0.5 0.5
0.5 1 @textcolor 0 0 0 1;
#X obj 1641 138 vline~;
#X msg 1641 116 \$1 100;
#X obj 1589 164 c.number~ @size 53 17 @fontname "Helvetica" @fontweight
"normal" @fontslant "roman" @fontsize 11 @receive "(null)" @send "(null)"
@interval 50 @decimal 6 @bgcolor 0.75 0.75 0.75 1 @bdcolor 0.5 0.5
0.5 1 @textcolor 0 0 0 1;
#X obj 1641 -93 vsl 15 128 0 127 0 0 empty empty empty 0 -9 0 10 -262144
-1 -1 10300 1;
#X obj 1641 46 / 127;
#X obj 1641 70 * 2;
#X obj 1641 94 - 1;
#X obj 1447 -10 *~;
#X obj 1690 187 *~;
#X obj 1170 -100 tgl 15 0 empty empty empty 17 7 0 10 -262144 -1 -1
1 1;
#X text 1187 -99 On for LFO off for manual/midi control;
#X obj 1170 -72 s \$0-elevationLFO;
#X obj 1522 -61 r \$0-elevationLFO;
#X obj 1522 -30 sel 0 1;
#X msg 1522 0 0;
#X msg 1560 1 1;
#X obj 1705 83 r \$0-elevationLFO;
#X msg 1705 144 0;
#X msg 1734 143 1;
#X obj 1705 114 sel 1 0;
#X obj 1641 -118 inlet;
#X text 1679 -118 manual elevation;
#X text 1487 -89 elevation lfo speed;
#X obj 1432 -128 inlet;
#X text 27 -113 Jesse Mejia 2017 \, Portland Community College;
#X text 21 -52 work in progress - allows manual and LFO control over
Azimuth and Elevation;
#X obj 1170 -124 inlet;
#X obj 420 460 hoa.3d.decoder~ 3 ambisonics 20 ------;
#X obj 805 23 sel 0 1;
#X msg 804 65 0;
#X msg 835 65 1;
#X obj 512 -102 tgl 15 0 empty empty empty 17 7 0 10 -262144 -1 -1
1 1;
#X text 529 -101 On for LFO off for manual/midi control;
#X obj 512 -126 inlet;
#X obj 363 -126 inlet~;
#X obj 1004 131 vline~;
#X msg 1004 109 \$1 100;
#X obj 952 157 c.number~ @size 53 17 @fontname "Helvetica" @fontweight
"normal" @fontslant "roman" @fontsize 11 @receive "(null)" @send "(null)"
@interval 50 @decimal 6 @bgcolor 0.75 0.75 0.75 1 @bdcolor 0.5 0.5
0.5 1 @textcolor 0 0 0 1;
#X obj 1004 -100 vsl 15 128 0 127 0 0 empty empty empty 0 -9 0 10 -262144
-1 -1 5500 1;
#X obj 1004 39 / 127;
#X obj 1004 63 * 2;
#X obj 1004 87 - 1;
#X obj 1053 180 *~;
#X msg 1068 137 0;
#X msg 1097 136 1;
#X obj 1068 107 sel 1 0;
#X obj 1004 -125 inlet;
#X text 28 -131 Unity Gain Spatization Channel, f 66;
#X obj 775 -127 inlet;
#X text 835 -78 azimuth lfo speed;
#X obj 775 -3 *~;
#X obj 805 -8 r \$0-azimuthLFO;
#X obj 1068 76 r \$0-azimuthLFO;
#X obj 512 -74 s \$0-azimuthLFO;
#X text 1042 -125 manual azimuth;
#X text 409 -125 audio input;
#X obj 911 376 hoa.3d.scope~ @size 207 207 @fontname Helvetica @fontweight
normal @fontslant roman @fontsize 11 @receive hoascope3d @send (null)
@order 3 @gain 1 @interval 20 @bgcolor 0.76 0.76 0.76 1 @bdcolor 0.7
0.7 0.7 1 @phcolor 1 0 2.38419e-07 1 @nhcolor 0 0.1 1 1;
#X text 1027 -13 0 to 127 = 0 360 degrees;
#X text 903 598 delete this object for better performance;
#X connect 2 0 1 0;
#X connect 6 0 20 0;
#X connect 6 0 56 0;
#X connect 6 0 85 0;
#X connect 6 1 20 1;
#X connect 6 1 56 1;
#X connect 6 1 85 1;
#X connect 6 2 20 2;
#X connect 6 2 56 2;
#X connect 6 2 85 2;
#X connect 6 3 20 3;
#X connect 6 3 56 3;
#X connect 6 3 85 3;
#X connect 6 4 20 4;
#X connect 6 4 56 4;
#X connect 6 4 85 4;
#X connect 6 5 20 5;
#X connect 6 5 56 5;
#X connect 6 5 85 5;
#X connect 6 6 20 6;
#X connect 6 6 56 6;
#X connect 6 6 85 6;
#X connect 6 7 20 7;
#X connect 6 7 56 7;
#X connect 6 7 85 7;
#X connect 6 8 20 8;
#X connect 6 8 56 8;
#X connect 6 8 85 8;
#X connect 6 9 20 9;
#X connect 6 9 56 9;
#X connect 6 9 85 9;
#X connect 6 10 20 10;
#X connect 6 10 56 10;
#X connect 6 10 85 10;
#X connect 6 11 20 11;
#X connect 6 11 56 11;
#X connect 6 11 85 11;
#X connect 6 12 20 12;
#X connect 6 12 56 12;
#X connect 6 12 85 12;
#X connect 6 13 20 13;
#X connect 6 13 56 13;
#X connect 6 13 85 13;
#X connect 6 14 20 14;
#X connect 6 14 56 14;
#X connect 6 14 85 14;
#X connect 6 15 20 15;
#X connect 6 15 56 15;
#X connect 6 15 85 15;
#X connect 8 0 7 0;
#X connect 8 0 6 1;
#X connect 11 0 18 0;
#X connect 12 0 14 0;
#X connect 14 0 79 0;
#X connect 17 0 13 0;
#X connect 17 0 6 2;
#X connect 18 0 28 0;
#X connect 18 0 36 0;
#X connect 20 0 19 0;
#X connect 20 0 21 0;
#X connect 20 1 21 1;
#X connect 20 1 22 0;
#X connect 25 0 24 0;
#X connect 26 0 27 0;
#X connect 27 0 25 0;
#X connect 29 0 31 0;
#X connect 29 0 37 0;
#X connect 30 0 29 0;
#X connect 32 0 33 0;
#X connect 33 0 34 0;
#X connect 34 0 35 0;
#X connect 35 0 30 0;
#X connect 36 0 17 1;
#X connect 37 0 17 1;
#X connect 38 0 40 0;
#X connect 41 0 42 0;
#X connect 42 0 43 0;
#X connect 42 1 44 0;
#X connect 43 0 36 1;
#X connect 44 0 36 1;
#X connect 45 0 48 0;
#X connect 46 0 37 1;
#X connect 47 0 37 1;
#X connect 48 0 46 0;
#X connect 48 1 47 0;
#X connect 49 0 32 0;
#X connect 52 0 11 0;
#X connect 55 0 38 0;
#X connect 56 0 5 0;
#X connect 56 1 5 1;
#X connect 56 2 5 2;
#X connect 56 3 5 3;
#X connect 56 4 5 4;
#X connect 56 5 5 5;
#X connect 56 6 5 6;
#X connect 56 7 5 7;
#X connect 56 8 5 8;
#X connect 56 9 5 9;
#X connect 56 10 5 10;
#X connect 56 11 5 11;
#X connect 56 12 5 12;
#X connect 56 13 5 13;
#X connect 56 14 5 14;
#X connect 56 15 5 15;
#X connect 56 16 5 16;
#X connect 56 17 5 17;
#X connect 56 18 5 18;
#X connect 56 19 5 19;
#X connect 57 0 58 0;
#X connect 57 1 59 0;
#X connect 58 0 79 1;
#X connect 59 0 79 1;
#X connect 60 0 82 0;
#X connect 62 0 60 0;
#X connect 63 0 6 0;
#X connect 64 0 66 0;
#X connect 64 0 71 0;
#X connect 64 0 8 1;
#X connect 65 0 64 0;
#X connect 67 0 68 0;
#X connect 68 0 69 0;
#X connect 69 0 70 0;
#X connect 70 0 65 0;
#X connect 72 0 71 1;
#X connect 73 0 71 1;
#X connect 74 0 72 0;
#X connect 74 1 73 0;
#X connect 75 0 67 0;
#X connect 77 0 12 0;
#X connect 79 0 8 1;
#X connect 80 0 57 0;
#X connect 81 0 74 0;
