#N canvas 13 302 450 300 10;
#X obj 148 25 inlet;
#X obj 186 255 dac~;
#X msg 190 199 set \$1;
#X obj 190 150 f \$1;
#X obj 190 174 + 1;
#X obj 190 121 loadbang;
#X obj 123 112 *~ 1;
#X obj 76 36 inlet~;
#X obj 148 81 line 0 1;
#X msg 148 54 \$1 40;
#X connect 0 0 9 0;
#X connect 2 0 1 0;
#X connect 3 0 4 0;
#X connect 4 0 2 0;
#X connect 5 0 3 0;
#X connect 6 0 1 0;
#X connect 7 0 6 0;
#X connect 8 0 6 1;
#X connect 9 0 8 0;
