#N canvas 82 269 450 300 10;
#X obj 148 25 inlet;
#X obj 186 255 dac~;
#X msg 190 199 set \$1;
#X obj 190 150 f \$1;
#X obj 190 174 + 1;
#X obj 190 121 loadbang;
#X obj 76 36 inlet~;
#X obj 87 157 hip~ 150;
#X obj 87 184 hip~ 150;
#X obj 87 210 hip~ 150;
#X obj 141 77 vline~;
#X obj 123 112 *~;
#X msg 143 52 \$1 20;
#X connect 0 0 12 0;
#X connect 2 0 1 0;
#X connect 3 0 4 0;
#X connect 4 0 2 0;
#X connect 5 0 3 0;
#X connect 6 0 11 0;
#X connect 7 0 8 0;
#X connect 8 0 9 0;
#X connect 9 0 1 0;
#X connect 10 0 11 1;
#X connect 11 0 7 0;
#X connect 12 0 10 0;
