#N canvas 82 22 1153 626 10;
#X obj 497 96 hsl 128 15 -180 180 0 0 empty empty azimuth -2 -8 0 10
-262144 -1 -1 0 1;
#X floatatom 494 127 5 0 0 0 - - -, f 5;
#X obj 775 91 hsl 128 15 0 100 0 0 empty empty spread -2 -8 0 10 -262144
-1 -1 0 1;
#X floatatom 772 113 5 0 0 0 - - -, f 5;
#X msg 50 -5 define_loudspeakers 2 0 11.25 22.5 33.75 45 56.25 67.5
78.75 90 101.25 112.5 123.75 135 146.25 157.5 168.75 180 191.25 202.5
213.75 225 236.25 247.5 258.75 270 281.25 292.5 303.75 315 326.25 337.5
348.75;
#X text 202 207 requires pddp and vbap externals installed via help/find
externals;
#X text 961 -13 vbap 32 channel panner for unityGain;
#X text 961 4 PCC Cascade \, Music and Sonic Arts;
#X text 961 20 Jesse Mejia 2017;
#X text 58 49 defines a 2D array \, and a list of loudspeaker angles
;
#X obj 494 -16 inlet;
#X obj 772 -8 inlet;
#X obj 772 20 / 127;
#X obj 772 44 * 100;
#X floatatom 496 179 5 0 0 0 - - -, f 5;
#X obj 748 162 int;
#X floatatom 754 193 5 0 0 0 - - -, f 5;
#X obj 26 70 inlet~;
#X obj 494 8 scale 0 127 -180 180;
#X obj 306 94 t b b;
#X obj 424 27 r start;
#X msg 230 97 1;
#X obj 300 279 *~ 0.1;
#X obj 300 309 clone channel_output~ 32;
#X msg 496 156 \$1 20;
#X obj 436 190 line 0 1;
#X msg 552 60 36;
#X msg 587 62 50;
#X obj 441 275 vbap 0 0 30;
#X obj 238 121 metro 100;
#X connect 0 0 1 0;
#X connect 1 0 24 0;
#X connect 2 0 3 0;
#X connect 3 0 15 0;
#X connect 4 0 28 0;
#X connect 10 0 18 0;
#X connect 11 0 12 0;
#X connect 12 0 13 0;
#X connect 13 0 2 0;
#X connect 15 0 16 0;
#X connect 15 0 28 3;
#X connect 17 0 22 0;
#X connect 18 0 0 0;
#X connect 19 0 21 0;
#X connect 19 1 4 0;
#X connect 20 0 19 0;
#X connect 21 0 29 0;
#X connect 22 0 23 0;
#X connect 24 0 14 0;
#X connect 24 0 25 0;
#X connect 25 0 28 1;
#X connect 26 0 0 0;
#X connect 27 0 0 0;
#X connect 28 0 23 1;
#X connect 29 0 28 0;
