#N canvas 209 22 853 669 10;
#X floatatom 76 101 5 0 359 0 - - -, f 5;
#X obj 77 193 sin;
#X obj 157 176 cos;
#X obj 132 116 * 0.017453;
#X obj 130 148 t f f;
#X obj 77 267 *;
#X obj 156 246 *;
#X floatatom 77 298 5 0 0 0 - - -, f 5;
#X floatatom 156 276 5 0 0 0 - - -, f 5;
#X floatatom 286 325 5 0 0 0 - - -, f 5;
#X obj 286 298 *;
#X obj 286 265 t f f;
#X obj 337 297 *;
#X obj 337 264 t f f;
#X floatatom 337 325 5 0 0 0 - - -, f 5;
#X obj 286 350 +;
#X floatatom 282 410 5 0 0 0 - - -, f 5;
#X obj 286 376 sqrt;
#X floatatom 324 236 5 0 0 0 - - -, f 5;
#X obj 291 146 route x y;
#X floatatom 268 234 5 0 0 0 - - -, f 5;
#X obj 285 183 - 0.5;
#X obj 341 178 - 0.5;
#X obj 285 210 * 2;
#X obj 341 210 * 2;
#X obj 183 223 f;
#X obj 77 218 t f b;
#X obj 156 200 t f b;
#X obj 104 244 f;
#X obj 132 43 inlet angle;
#X obj 290 65 inlet xy_from_osc;
#X text 359 15 takes current angle and offsets with current radius
;
#X obj 77 320 * 0.5;
#X obj 156 302 * 0.5;
#X obj 77 353 + 0.5;
#X obj 156 331 + 0.5;
#X obj 185 494 f \$1;
#X obj 185 465 loadbang;
#X obj 223 434 bng 15 250 50 0 empty empty empty 17 7 0 10 -262144
-1 -1;
#X msg 185 546 set \$1;
#X floatatom 131 475 5 0 0 0 - - -, f 5;
#X obj 185 518 makefilename panner%d/x;
#X obj 153 579 s repro_osc;
#X obj 154 433 t f b;
#X obj 92 599 f \$1;
#X obj 92 570 loadbang;
#X obj 130 539 bng 15 250 50 0 empty empty empty 17 7 0 10 -262144
-1 -1;
#X msg 92 651 set \$1;
#X floatatom 38 580 5 0 0 0 - - -, f 5;
#X obj 60 684 s repro_osc;
#X obj 61 538 t f b;
#X obj 92 623 makefilename panner%d/y;
#X obj 133 78 scale 0 127 1 359;
#X connect 1 0 26 0;
#X connect 2 0 27 0;
#X connect 3 0 4 0;
#X connect 4 0 1 0;
#X connect 4 1 2 0;
#X connect 5 0 7 0;
#X connect 6 0 8 0;
#X connect 7 0 32 0;
#X connect 8 0 33 0;
#X connect 9 0 15 0;
#X connect 10 0 9 0;
#X connect 11 0 10 0;
#X connect 11 1 10 1;
#X connect 12 0 14 0;
#X connect 13 0 12 0;
#X connect 13 1 12 1;
#X connect 14 0 15 1;
#X connect 15 0 17 0;
#X connect 17 0 16 0;
#X connect 17 0 25 1;
#X connect 17 0 28 1;
#X connect 19 0 21 0;
#X connect 19 1 22 0;
#X connect 21 0 23 0;
#X connect 22 0 24 0;
#X connect 23 0 20 0;
#X connect 23 0 11 0;
#X connect 24 0 18 0;
#X connect 24 0 13 0;
#X connect 25 0 6 1;
#X connect 26 0 5 0;
#X connect 26 1 28 0;
#X connect 27 0 6 0;
#X connect 27 1 25 0;
#X connect 28 0 5 1;
#X connect 29 0 52 0;
#X connect 30 0 19 0;
#X connect 32 0 34 0;
#X connect 33 0 35 0;
#X connect 34 0 43 0;
#X connect 35 0 50 0;
#X connect 36 0 41 0;
#X connect 37 0 36 0;
#X connect 38 0 36 0;
#X connect 39 0 42 0;
#X connect 41 0 39 0;
#X connect 43 0 42 0;
#X connect 43 0 40 0;
#X connect 43 1 36 0;
#X connect 44 0 51 0;
#X connect 45 0 44 0;
#X connect 46 0 44 0;
#X connect 47 0 49 0;
#X connect 50 0 49 0;
#X connect 50 0 48 0;
#X connect 50 1 44 0;
#X connect 51 0 47 0;
#X connect 52 0 3 0;
#X connect 52 0 0 0;
