#N canvas 594 106 1813 1060 10;
#X msg 9 429 \; pd dsp 1;
#X msg 8 466 \; pd dsp 0;
#X obj 1176 -70 oscparse;
#X obj 1176 -96 netreceive -u -b;
#X msg 1188 -123 listen 0;
#X obj 706 149 r osc;
#X obj 706 174 route panner2;
#X obj 531 -146 bng 15 250 50 0 empty empty empty 17 7 0 10 -262144
-1 -1;
#X obj 531 -126 s start;
#X obj 248 406 r osc;
#X obj 622 403 r osc;
#X obj 248 431 route panner3;
#X obj 622 428 route panner4;
#X text 848 381 center channel / all;
#X msg 961 325 x 0.5 \, y0.5;
#X obj 961 288 loadbang;
#X obj 236 -3 catch~ bus1;
#X obj 237 23 gain~;
#X obj 582 17 gain~;
#X obj 125 286 gain~;
#X obj 499 279 gain~;
#X obj 838 149 gain~;
#X obj 583 -9 catch~ bus2;
#X obj 125 261 catch~ bus3;
#X obj 499 256 catch~ bus4;
#X obj 838 107 catch~ bus5;
#X obj 1129 524 dac~ 33 34;
#X obj 1140 326 gain~;
#X obj 662 39 throw~ sub;
#X obj 302 53 throw~ sub;
#X obj 171 284 throw~ sub;
#X obj 549 278 throw~ sub;
#X obj 882 140 throw~ sub;
#X obj 1140 210 catch~ sub;
#X obj 359 147 r osc;
#X obj 359 172 route panner1;
#X obj 197 2 *~ 1;
#X obj 526 -1 *~ 1;
#X obj 111 222 *~ 1;
#X obj 455 216 *~ 1;
#X text 18 -110 burke - 4 stereo inputs - consecutive into first 4
busses - (-5db was testing level);
#X text 20 -148 ben = 5 mono throws from his patch \, bus1 \, bus2
\, bus3 \, bus4 \, bus5 - bus5 should be panned hard center all gains
at -23;
#X obj 715 4 s store;
#X obj 867 48 s retrieve;
#N canvas 183 247 1252 662 presets 0;
#X obj 16 40 text define -k presets_1;
#A set 0 0 0 0.205882 0.210477 0.465401 \; 0 0 0 0.205882 0.536844
0.148756 \; 1 0 0 0.583333 0.536844 0.148756 \; 0 0 0 0.583333 0.259637
0.901025 \; 0 0 1 0.348039 0.0471008 0.555281 \;;
#X obj 228 50 r osc;
#X obj 228 80 route panner1;
#X obj 14 88 text define -k presets_2;
#A set 0 0 0 0.22549 0.833089 0.661847 \; 0 0 0 0.22549 0.700266 0.77204
\; 1 0 0 0.612745 0.700266 0.77204 \; 0 0 0 0.612745 0.642973 0.94509
\; 0 0 1 0.362745 0.827146 0.16602 \;;
#X obj 228 109 route lfos;
#X obj 407 109 route x y;
#X obj 228 151 unpack f f f;
#X obj 205 178 f;
#X obj 247 178 f;
#X obj 284 178 f;
#X obj 313 178 f;
#X obj 391 179 f;
#X obj 425 179 f;
#X obj 200 229 pack f f f f f f;
#X obj 200 110 bng 15 250 50 0 empty empty empty 17 7 0 10 -262144
-1 -1;
#X obj 230 20 t b f;
#X text 270 19 send a number to save last state as a preset of that
number;
#X obj 200 264 text set presets_1;
#X text 304 -1 store;
#X text 730 11 retrieve;
#X obj 686 66 text get presets_1;
#X obj 686 98 unpack f f f f f f;
#X obj 680 124 pack f f f;
#X msg 679 146 panner1 lfos \$1 \$2 \$3;
#X obj 297 109 route lfo_speed;
#X msg 821 147 panner1 lfo_speed \$1;
#X obj 838 218 s osc;
#X obj 231 -9 r store;
#X obj 686 34 r retrieve;
#X obj 13 134 text define -k presets_3;
#A set 0 0 0 0.210784 0.286183 0.299367 \; 0 0 0 0.210784 0.292551
0.272951 \; 0 1 0 0.617647 0.292551 0.272951 \; 0 0 0 0.617647 0.330893
0.339227 \; 0 0 1 0.416667 0.924834 0.69512 \;;
#X obj 13 175 text define -k presets_4;
#A set 0 0 0 0.20098 0.735978 0.29478 \; 0 0 0 0.20098 0.339869 0.766437
\; 0 1 0 0.656863 0.339869 0.766437 \; 0 0 0 0.656863 0.660562 0.315747
\; 0 0 1 0.426471 0.719095 0.837447 \;;
#X obj 210 417 r osc;
#X obj 210 476 route lfos;
#X obj 389 476 route x y;
#X obj 203 515 unpack f f f;
#X obj 187 545 f;
#X obj 224 544 f;
#X obj 266 545 f;
#X obj 297 544 f;
#X obj 373 546 f;
#X obj 407 546 f;
#X obj 187 578 pack f f f f f f;
#X obj 182 477 bng 15 250 50 0 empty empty empty 17 7 0 10 -262144
-1 -1;
#X obj 212 387 t b f;
#X text 252 386 send a number to save last state as a preset of that
number;
#X text 286 366 store;
#X text 712 378 retrieve;
#X obj 668 465 unpack f f f f f f;
#X obj 662 491 pack f f f;
#X obj 284 476 route lfo_speed;
#X obj 820 585 s osc;
#X obj 213 358 r store;
#X obj 668 401 r retrieve;
#X obj 210 447 route panner2;
#X obj 668 433 text get presets_2;
#X obj 187 600 text set presets_2;
#X msg 661 513 panner2 lfos \$1 \$2 \$3;
#X msg 803 514 panner2 lfo_speed \$1;
#X obj 12 223 text define -k presets_5;
#A set 0 0 0 0.284314 0.258793 0.640742 \; 0 0 0 1 0.663519 0.0618287
\; 1 0 0 0.563726 0.266982 0.310162 \; 0 0 0 0.563726 0.262069 0.279466
\; 0 0 1 0.357843 0.131216 0.211871 \;;
#X obj 13 267 text define -k presets_6;
#A set 0 0 0 0.254902 0.817909 0.634162 \; 0 0 0 1 0.711195 0.919632
\; 1 0 0 0.681373 0.735421 0.330854 \; 0 0 0 0.681373 0.791619 0.289517
\; 0 0 1 0.352941 0.936142 0.328618 \;;
#X obj 13 307 text define -k presets_7;
#A set 0 0 0 0.230392 0.195704 0.372186 \; 0 0 0 1 0.17148 0.249292
\; 0 1 0 0.661765 0.294992 0.455158 \; 0 0 0 0.661765 0.195926 0.739896
\; 0 0 0 0.382353 0.207859 0.865149 \;;
#X obj 11 350 text define -k presets_8;
#A set 0 0 0 0.22549 0.83629 0.525225 \; 0 0 0 1 0.493496 0.964062
\; 0 1 0 0.607843 0.696213 0.42608 \; 0 0 0 0.607843 0.781264 0.736005
\; 0 0 0 0.441176 0.963744 0.558919 \;;
#X obj 201 702 r osc;
#X obj 201 761 route lfos;
#X obj 380 761 route x y;
#X obj 201 803 unpack f f f;
#X obj 178 830 f;
#X obj 220 830 f;
#X obj 257 830 f;
#X obj 286 830 f;
#X obj 364 831 f;
#X obj 398 831 f;
#X obj 178 863 pack f f f f f f;
#X obj 93 738 bng 15 250 50 0 empty empty empty 17 7 0 10 -262144 -1
-1;
#X obj 203 672 t b f;
#X text 243 671 send a number to save last state as a preset of that
number;
#X text 277 651 store;
#X text 703 663 retrieve;
#X obj 659 750 unpack f f f f f f;
#X obj 653 776 pack f f f;
#X obj 270 761 route lfo_speed;
#X obj 811 870 s osc;
#X obj 204 643 r store;
#X obj 659 686 r retrieve;
#X obj 201 732 route panner3;
#X obj 659 718 text get presets_3;
#X msg 652 798 panner3 lfos \$1 \$2 \$3;
#X msg 794 799 panner3 lfo_speed \$1;
#X obj 178 885 text set presets_3;
#X obj 176 981 r osc;
#X obj 176 1040 route lfos;
#X obj 355 1040 route x y;
#X obj 176 1082 unpack f f f;
#X obj 153 1109 f;
#X obj 195 1109 f;
#X obj 232 1109 f;
#X obj 261 1109 f;
#X obj 339 1110 f;
#X obj 373 1110 f;
#X obj 153 1142 pack f f f f f f;
#X obj 148 1041 bng 15 250 50 0 empty empty empty 17 7 0 10 -262144
-1 -1;
#X obj 178 951 t b f;
#X text 218 950 send a number to save last state as a preset of that
number;
#X text 252 930 store;
#X text 678 942 retrieve;
#X obj 634 1029 unpack f f f f f f;
#X obj 628 1055 pack f f f;
#X obj 245 1040 route lfo_speed;
#X obj 786 1149 s osc;
#X obj 179 922 r store;
#X obj 634 965 r retrieve;
#X obj 176 1011 route panner4;
#X obj 634 997 text get presets_4;
#X obj 153 1164 text set presets_4;
#X msg 627 1078 panner4 lfos \$1 \$2 \$3;
#X msg 769 1078 panner4 lfo_speed \$1;
#X obj 152 1308 r osc;
#X obj 152 1367 route lfos;
#X obj 331 1367 route x y;
#X obj 152 1409 unpack f f f;
#X obj 129 1436 f;
#X obj 171 1436 f;
#X obj 208 1436 f;
#X obj 237 1436 f;
#X obj 315 1437 f;
#X obj 349 1437 f;
#X obj 124 1487 pack f f f f f f;
#X obj 124 1368 bng 15 250 50 0 empty empty empty 17 7 0 10 -262144
-1 -1;
#X obj 154 1278 t b f;
#X text 194 1277 send a number to save last state as a preset of that
number;
#X text 228 1257 store;
#X text 654 1269 retrieve;
#X obj 610 1356 unpack f f f f f f;
#X obj 604 1382 pack f f f;
#X obj 221 1367 route lfo_speed;
#X obj 762 1476 s osc;
#X obj 155 1249 r store;
#X obj 610 1292 r retrieve;
#X obj 134 1675 r osc;
#X obj 134 1734 route lfos;
#X obj 313 1734 route x y;
#X obj 134 1776 unpack f f f;
#X obj 111 1803 f;
#X obj 153 1803 f;
#X obj 190 1803 f;
#X obj 219 1803 f;
#X obj 297 1804 f;
#X obj 331 1804 f;
#X obj 111 1836 pack f f f f f f;
#X obj 106 1735 bng 15 250 50 0 empty empty empty 17 7 0 10 -262144
-1 -1;
#X obj 136 1645 t b f;
#X text 176 1644 send a number to save last state as a preset of that
number;
#X text 210 1624 store;
#X text 636 1636 retrieve;
#X obj 592 1723 unpack f f f f f f;
#X obj 586 1749 pack f f f;
#X obj 203 1734 route lfo_speed;
#X obj 744 1843 s osc;
#X obj 137 1616 r store;
#X obj 592 1659 r retrieve;
#X obj 152 1338 route panner5;
#X obj 610 1324 text get presets_5;
#X msg 603 1404 panner5 lfos \$1 \$2 \$3;
#X msg 745 1405 panner5 lfo_speed \$1;
#X obj 123 1515 text set presets_5;
#X obj 134 1705 route panner6;
#X obj 592 1691 text get presets_6;
#X msg 585 1771 panner6 lfos \$1 \$2 \$3;
#X msg 727 1772 panner6 lfo_speed \$1;
#X obj 111 1858 text set presets_6;
#X obj 113 1955 r osc;
#X obj 113 2014 route lfos;
#X obj 292 2014 route x y;
#X obj 113 2056 unpack f f f;
#X obj 90 2083 f;
#X obj 132 2083 f;
#X obj 169 2083 f;
#X obj 198 2083 f;
#X obj 276 2084 f;
#X obj 310 2084 f;
#X obj 85 2134 pack f f f f f f;
#X obj 85 2015 bng 15 250 50 0 empty empty empty 17 7 0 10 -262144
-1 -1;
#X obj 115 1925 t b f;
#X text 155 1924 send a number to save last state as a preset of that
number;
#X text 189 1904 store;
#X text 615 1916 retrieve;
#X obj 571 2003 unpack f f f f f f;
#X obj 565 2029 pack f f f;
#X obj 182 2014 route lfo_speed;
#X obj 723 2123 s osc;
#X obj 116 1896 r store;
#X obj 571 1939 r retrieve;
#X obj 95 2322 r osc;
#X obj 95 2381 route lfos;
#X obj 274 2381 route x y;
#X obj 95 2423 unpack f f f;
#X obj 72 2450 f;
#X obj 114 2450 f;
#X obj 151 2450 f;
#X obj 180 2450 f;
#X obj 258 2451 f;
#X obj 292 2451 f;
#X obj 72 2483 pack f f f f f f;
#X obj 67 2382 bng 15 250 50 0 empty empty empty 17 7 0 10 -262144
-1 -1;
#X obj 97 2292 t b f;
#X text 137 2291 send a number to save last state as a preset of that
number;
#X text 171 2271 store;
#X text 597 2283 retrieve;
#X obj 553 2370 unpack f f f f f f;
#X obj 547 2396 pack f f f;
#X obj 164 2381 route lfo_speed;
#X obj 705 2490 s osc;
#X obj 98 2263 r store;
#X obj 553 2306 r retrieve;
#X obj 113 1985 route panner7;
#X obj 571 1971 text get presets_7;
#X msg 565 2051 panner7 lfos \$1 \$2 \$3;
#X msg 706 2052 panner7 lfo_speed \$1;
#X obj 95 2352 route panner8;
#X obj 553 2338 text get presets_8;
#X obj 72 2505 text set presets_8;
#X msg 546 2418 panner8 lfos \$1 \$2 \$3;
#X msg 688 2419 panner8 lfo_speed \$1;
#X obj 84 2162 text set presets_7;
#X msg 956 149 panner1 y \$1;
#X msg 1042 148 panner1 x \$1;
#X msg 930 800 panner3 y \$1;
#X msg 1015 800 panner3 x \$1;
#X msg 905 1079 panner4 y \$1;
#X msg 990 1079 panner4 x \$1;
#X msg 880 1406 panner5 y \$1;
#X msg 966 1406 panner5 x \$1;
#X msg 863 1773 panner6 y \$1;
#X msg 948 1773 panner6 x \$1;
#X msg 841 2053 panner7 y \$1;
#X msg 927 2053 panner7 x \$1;
#X msg 824 2420 panner8 y \$1;
#X msg 909 2420 panner8 x \$1;
#X msg 939 515 panner2 x \$1;
#X msg 1024 515 panner2 y \$1;
#X obj 565 592 print;
#X obj 93 760 t b b b b b b;
#X msg 38 14 write -c presets_1.txt;
#X msg 26 64 write -c presets_2.txt;
#X msg 20 111 write -c presets_3.txt;
#X msg 19 154 write -c presets_4.txt;
#X msg 26 200 write -c presets_5.txt;
#X msg 24 246 write -c presets_6.txt;
#X msg 21 287 write -c presets_7.txt;
#X msg 24 328 write -c presets_8.txt;
#X obj 17 -7 bng 15 250 50 0 empty empty empty 17 7 0 10 -262144 -1
-1;
#X text 37 -7 dump to text;
#X connect 1 0 2 0;
#X connect 2 0 4 0;
#X connect 2 0 5 0;
#X connect 2 0 24 0;
#X connect 4 0 6 0;
#X connect 5 0 11 1;
#X connect 5 1 12 1;
#X connect 6 0 7 1;
#X connect 6 1 8 1;
#X connect 6 2 9 1;
#X connect 7 0 13 0;
#X connect 8 0 13 1;
#X connect 9 0 13 2;
#X connect 10 0 13 3;
#X connect 11 0 13 4;
#X connect 12 0 13 5;
#X connect 13 0 17 0;
#X connect 14 0 7 0;
#X connect 14 0 9 0;
#X connect 14 0 10 0;
#X connect 14 0 11 0;
#X connect 14 0 12 0;
#X connect 14 0 8 0;
#X connect 15 0 14 0;
#X connect 15 1 17 1;
#X connect 20 0 21 0;
#X connect 21 0 22 0;
#X connect 21 1 22 1;
#X connect 21 2 22 2;
#X connect 21 3 25 0;
#X connect 21 4 224 0;
#X connect 21 5 225 0;
#X connect 22 0 23 0;
#X connect 23 0 26 0;
#X connect 24 0 10 1;
#X connect 25 0 26 0;
#X connect 27 0 15 0;
#X connect 28 0 20 0;
#X connect 31 0 53 0;
#X connect 32 0 34 0;
#X connect 33 0 39 1;
#X connect 33 1 40 1;
#X connect 34 0 35 1;
#X connect 34 1 36 1;
#X connect 34 2 37 1;
#X connect 35 0 41 0;
#X connect 36 0 41 1;
#X connect 37 0 41 2;
#X connect 38 0 41 3;
#X connect 39 0 41 4;
#X connect 40 0 41 5;
#X connect 41 0 55 0;
#X connect 41 0 240 0;
#X connect 42 0 35 0;
#X connect 42 0 37 0;
#X connect 42 0 38 0;
#X connect 42 0 39 0;
#X connect 42 0 40 0;
#X connect 42 0 36 0;
#X connect 43 0 42 0;
#X connect 43 1 55 1;
#X connect 47 0 48 0;
#X connect 47 1 48 1;
#X connect 47 2 48 2;
#X connect 47 3 57 0;
#X connect 47 4 238 0;
#X connect 47 5 239 0;
#X connect 48 0 56 0;
#X connect 49 0 38 1;
#X connect 51 0 43 0;
#X connect 52 0 54 0;
#X connect 53 0 32 0;
#X connect 53 0 33 0;
#X connect 53 0 49 0;
#X connect 54 0 47 0;
#X connect 54 0 240 0;
#X connect 56 0 50 0;
#X connect 57 0 50 0;
#X connect 62 0 84 0;
#X connect 63 0 65 0;
#X connect 64 0 70 1;
#X connect 64 1 71 1;
#X connect 65 0 66 1;
#X connect 65 1 67 1;
#X connect 65 2 68 1;
#X connect 66 0 72 0;
#X connect 67 0 72 1;
#X connect 68 0 72 2;
#X connect 69 0 72 3;
#X connect 70 0 72 4;
#X connect 71 0 72 5;
#X connect 72 0 88 0;
#X connect 73 0 241 0;
#X connect 74 0 73 0;
#X connect 74 1 88 1;
#X connect 78 0 79 0;
#X connect 78 1 79 1;
#X connect 78 2 79 2;
#X connect 78 3 87 0;
#X connect 78 4 226 0;
#X connect 78 5 227 0;
#X connect 79 0 86 0;
#X connect 80 0 69 1;
#X connect 82 0 74 0;
#X connect 83 0 85 0;
#X connect 84 0 63 0;
#X connect 84 0 64 0;
#X connect 84 0 80 0;
#X connect 85 0 78 0;
#X connect 86 0 81 0;
#X connect 87 0 81 0;
#X connect 89 0 111 0;
#X connect 90 0 92 0;
#X connect 91 0 97 1;
#X connect 91 1 98 1;
#X connect 92 0 93 1;
#X connect 92 1 94 1;
#X connect 92 2 95 1;
#X connect 93 0 99 0;
#X connect 94 0 99 1;
#X connect 95 0 99 2;
#X connect 96 0 99 3;
#X connect 97 0 99 4;
#X connect 98 0 99 5;
#X connect 99 0 113 0;
#X connect 100 0 93 0;
#X connect 100 0 95 0;
#X connect 100 0 96 0;
#X connect 100 0 97 0;
#X connect 100 0 98 0;
#X connect 100 0 94 0;
#X connect 101 0 100 0;
#X connect 101 1 113 1;
#X connect 105 0 106 0;
#X connect 105 1 106 1;
#X connect 105 2 106 2;
#X connect 105 3 115 0;
#X connect 105 4 228 0;
#X connect 105 5 229 0;
#X connect 106 0 114 0;
#X connect 107 0 96 1;
#X connect 109 0 101 0;
#X connect 110 0 112 0;
#X connect 111 0 90 0;
#X connect 111 0 91 0;
#X connect 111 0 107 0;
#X connect 112 0 105 0;
#X connect 114 0 108 0;
#X connect 115 0 108 0;
#X connect 116 0 160 0;
#X connect 117 0 119 0;
#X connect 118 0 124 1;
#X connect 118 1 125 1;
#X connect 119 0 120 1;
#X connect 119 1 121 1;
#X connect 119 2 122 1;
#X connect 120 0 126 0;
#X connect 121 0 126 1;
#X connect 122 0 126 2;
#X connect 123 0 126 3;
#X connect 124 0 126 4;
#X connect 125 0 126 5;
#X connect 126 0 164 0;
#X connect 127 0 120 0;
#X connect 127 0 122 0;
#X connect 127 0 123 0;
#X connect 127 0 124 0;
#X connect 127 0 125 0;
#X connect 127 0 121 0;
#X connect 128 0 127 0;
#X connect 128 1 164 1;
#X connect 132 0 133 0;
#X connect 132 1 133 1;
#X connect 132 2 133 2;
#X connect 132 3 163 0;
#X connect 132 4 230 0;
#X connect 132 5 231 0;
#X connect 133 0 162 0;
#X connect 134 0 123 1;
#X connect 136 0 128 0;
#X connect 137 0 161 0;
#X connect 138 0 165 0;
#X connect 139 0 141 0;
#X connect 140 0 146 1;
#X connect 140 1 147 1;
#X connect 141 0 142 1;
#X connect 141 1 143 1;
#X connect 141 2 144 1;
#X connect 142 0 148 0;
#X connect 143 0 148 1;
#X connect 144 0 148 2;
#X connect 145 0 148 3;
#X connect 146 0 148 4;
#X connect 147 0 148 5;
#X connect 148 0 169 0;
#X connect 149 0 142 0;
#X connect 149 0 144 0;
#X connect 149 0 145 0;
#X connect 149 0 146 0;
#X connect 149 0 147 0;
#X connect 149 0 143 0;
#X connect 150 0 149 0;
#X connect 150 1 169 1;
#X connect 154 0 155 0;
#X connect 154 1 155 1;
#X connect 154 2 155 2;
#X connect 154 3 168 0;
#X connect 154 4 232 0;
#X connect 154 5 233 0;
#X connect 155 0 167 0;
#X connect 156 0 145 1;
#X connect 158 0 150 0;
#X connect 159 0 166 0;
#X connect 160 0 117 0;
#X connect 160 0 118 0;
#X connect 160 0 134 0;
#X connect 161 0 132 0;
#X connect 162 0 135 0;
#X connect 163 0 135 0;
#X connect 165 0 139 0;
#X connect 165 0 140 0;
#X connect 165 0 156 0;
#X connect 166 0 154 0;
#X connect 167 0 157 0;
#X connect 168 0 157 0;
#X connect 170 0 214 0;
#X connect 171 0 173 0;
#X connect 172 0 178 1;
#X connect 172 1 179 1;
#X connect 173 0 174 1;
#X connect 173 1 175 1;
#X connect 173 2 176 1;
#X connect 174 0 180 0;
#X connect 175 0 180 1;
#X connect 176 0 180 2;
#X connect 177 0 180 3;
#X connect 178 0 180 4;
#X connect 179 0 180 5;
#X connect 180 0 223 0;
#X connect 181 0 174 0;
#X connect 181 0 176 0;
#X connect 181 0 177 0;
#X connect 181 0 178 0;
#X connect 181 0 179 0;
#X connect 181 0 175 0;
#X connect 182 0 181 0;
#X connect 182 1 223 1;
#X connect 186 0 187 0;
#X connect 186 1 187 1;
#X connect 186 2 187 2;
#X connect 186 3 217 0;
#X connect 186 4 234 0;
#X connect 186 5 235 0;
#X connect 187 0 216 0;
#X connect 188 0 177 1;
#X connect 190 0 182 0;
#X connect 191 0 215 0;
#X connect 192 0 218 0;
#X connect 193 0 195 0;
#X connect 194 0 200 1;
#X connect 194 1 201 1;
#X connect 195 0 196 1;
#X connect 195 1 197 1;
#X connect 195 2 198 1;
#X connect 196 0 202 0;
#X connect 197 0 202 1;
#X connect 198 0 202 2;
#X connect 199 0 202 3;
#X connect 200 0 202 4;
#X connect 201 0 202 5;
#X connect 202 0 220 0;
#X connect 203 0 196 0;
#X connect 203 0 198 0;
#X connect 203 0 199 0;
#X connect 203 0 200 0;
#X connect 203 0 201 0;
#X connect 203 0 197 0;
#X connect 204 0 203 0;
#X connect 204 1 220 1;
#X connect 208 0 209 0;
#X connect 208 1 209 1;
#X connect 208 2 209 2;
#X connect 208 3 222 0;
#X connect 208 4 236 0;
#X connect 208 5 237 0;
#X connect 209 0 221 0;
#X connect 210 0 199 1;
#X connect 212 0 204 0;
#X connect 213 0 219 0;
#X connect 214 0 171 0;
#X connect 214 0 172 0;
#X connect 214 0 188 0;
#X connect 215 0 186 0;
#X connect 216 0 189 0;
#X connect 217 0 189 0;
#X connect 218 0 193 0;
#X connect 218 0 194 0;
#X connect 218 0 210 0;
#X connect 219 0 208 0;
#X connect 221 0 211 0;
#X connect 222 0 211 0;
#X connect 224 0 26 0;
#X connect 225 0 26 0;
#X connect 226 0 81 0;
#X connect 227 0 81 0;
#X connect 228 0 108 0;
#X connect 229 0 108 0;
#X connect 230 0 135 0;
#X connect 231 0 135 0;
#X connect 232 0 157 0;
#X connect 233 0 157 0;
#X connect 234 0 189 0;
#X connect 235 0 189 0;
#X connect 236 0 211 0;
#X connect 237 0 211 0;
#X connect 238 0 50 0;
#X connect 239 0 50 0;
#X connect 241 0 66 0;
#X connect 241 1 67 0;
#X connect 241 2 68 0;
#X connect 241 3 69 0;
#X connect 241 4 70 0;
#X connect 241 5 71 0;
#X connect 242 0 0 0;
#X connect 243 0 3 0;
#X connect 244 0 29 0;
#X connect 245 0 30 0;
#X connect 246 0 58 0;
#X connect 247 0 59 0;
#X connect 248 0 60 0;
#X connect 249 0 61 0;
#X connect 250 0 242 0;
#X connect 250 0 243 0;
#X connect 250 0 244 0;
#X connect 250 0 245 0;
#X connect 250 0 246 0;
#X connect 250 0 247 0;
#X connect 250 0 248 0;
#X connect 250 0 249 0;
#X restore 1013 -106 pd presets;
#X obj 111 199 adc~ 3;
#X obj 454 193 adc~ 4;
#X obj 715 -30 t f f;
#X obj 866 17 t f f;
#X msg 847 -11 0;
#X msg 878 -11 1;
#X msg 908 -11 2;
#X msg 939 -11 3;
#X msg 968 -11 4;
#X obj 863 -158 r osc;
#X obj 863 -136 route scene;
#X text 22 -68 seth +15db on all 8 ins \, scenes 0-4;
#X msg 1176 -151 listen 5000;
#N canvas 348 67 1029 599 osc_feedback 0;
#X msg 325 12 disconnect;
#X obj 317 39 netsend -u -b;
#X obj 318 -62 list prepend send;
#X obj 318 -37 list trim;
#X obj 318 -84 oscformat;
#X obj 437 -56 loadbang;
#X obj 502 144 route x y;
#X obj 502 169 t f b;
#X obj 502 97 r osc;
#X text 541 96 osc feedback;
#X obj 553 168 t f b;
#X obj 669 170 route lfos;
#X obj 669 195 t f b;
#X obj 472 276 t f b;
#X obj 472 251 route lfo_speed;
#X obj 502 119 route panner2;
#X msg 580 194 set panner2/y;
#X msg 528 221 set panner2/x;
#X msg 499 307 set panner2/lfo_speed;
#X msg 719 224 set panner2/lfos;
#X obj 553 345 s repro_osc;
#X obj 318 -107 r repro_osc;
#X obj 106 146 route x y;
#X obj 106 171 t f b;
#X obj 106 99 r osc;
#X text 145 98 osc feedback;
#X obj 157 170 t f b;
#X obj 273 172 route lfos;
#X obj 273 197 t f b;
#X obj 76 278 t f b;
#X obj 76 253 route lfo_speed;
#X obj 157 347 s repro_osc;
#X obj 106 121 route panner1;
#X msg 184 196 set panner1/y;
#X msg 134 223 set panner1/x;
#X msg 323 226 set panner1/lfos;
#X msg 103 309 set panner1/lfo_speed;
#X obj 486 458 route x y;
#X obj 486 483 t f b;
#X obj 486 411 r osc;
#X text 525 410 osc feedback;
#X obj 537 482 t f b;
#X obj 653 484 route lfos;
#X obj 653 509 t f b;
#X obj 456 590 t f b;
#X obj 456 565 route lfo_speed;
#X obj 537 659 s repro_osc;
#X obj 90 460 route x y;
#X obj 90 485 t f b;
#X obj 90 413 r osc;
#X text 129 412 osc feedback;
#X obj 141 484 t f b;
#X obj 257 486 route lfos;
#X obj 257 511 t f b;
#X obj 60 592 t f b;
#X obj 60 567 route lfo_speed;
#X obj 141 661 s repro_osc;
#X obj 90 435 route panner3;
#X msg 168 510 set panner3/y;
#X msg 118 537 set panner3/x;
#X msg 87 623 set panner3/lfo_speed;
#X msg 307 540 set panner3/lfos;
#X obj 486 433 route panner4;
#X msg 564 508 set panner4/y;
#X msg 512 535 set panner4/x;
#X msg 483 621 set panner4/lfo_speed;
#X msg 703 538 set panner4/lfos;
#X obj 475 769 route x y;
#X obj 475 794 t f b;
#X obj 475 722 r osc;
#X text 514 721 osc feedback;
#X obj 526 793 t f b;
#X obj 642 795 route lfos;
#X obj 642 820 t f b;
#X obj 445 901 t f b;
#X obj 445 876 route lfo_speed;
#X obj 526 970 s repro_osc;
#X obj 79 771 route x y;
#X obj 79 796 t f b;
#X obj 79 724 r osc;
#X text 118 723 osc feedback;
#X obj 130 795 t f b;
#X obj 246 797 route lfos;
#X obj 246 822 t f b;
#X obj 49 903 t f b;
#X obj 49 878 route lfo_speed;
#X obj 130 972 s repro_osc;
#X obj 459 1083 route x y;
#X obj 459 1108 t f b;
#X obj 459 1036 r osc;
#X text 498 1035 osc feedback;
#X obj 510 1107 t f b;
#X obj 626 1109 route lfos;
#X obj 626 1134 t f b;
#X obj 429 1215 t f b;
#X obj 429 1190 route lfo_speed;
#X obj 510 1284 s repro_osc;
#X obj 63 1085 route x y;
#X obj 63 1110 t f b;
#X obj 63 1038 r osc;
#X text 102 1037 osc feedback;
#X obj 114 1109 t f b;
#X obj 230 1111 route lfos;
#X obj 230 1136 t f b;
#X obj 33 1217 t f b;
#X obj 33 1192 route lfo_speed;
#X obj 114 1286 s repro_osc;
#X obj 79 746 route panner5;
#X msg 157 821 set panner5/y;
#X msg 107 848 set panner5/x;
#X msg 296 851 set panner5/lfos;
#X msg 76 934 set panner5/lfo_speed;
#X obj 475 744 route panner6;
#X obj 63 1060 route panner7;
#X obj 459 1058 route panner8;
#X msg 501 846 set panner6/x;
#X msg 692 849 set panner6/lfos;
#X msg 472 932 set panner6/lfo_speed;
#X msg 553 819 set panner6/y;
#X msg 141 1135 set panner7/y;
#X msg 93 1162 set panner7/x;
#X msg 60 1248 set panner7/lfo_speed;
#X msg 280 1165 set panner7/lfos;
#X msg 537 1133 set panner8/y;
#X msg 485 1160 set panner8/x;
#X msg 456 1246 set panner8/lfo_speed;
#X msg 676 1163 set panner8/lfos;
#X obj 484 -93 inlet;
#X msg 326 -12 connect 192.168.1.101 8000;
#X connect 0 0 1 0;
#X connect 2 0 3 0;
#X connect 3 0 1 0;
#X connect 4 0 2 0;
#X connect 5 0 128 0;
#X connect 6 0 7 0;
#X connect 6 1 10 0;
#X connect 7 0 20 0;
#X connect 7 1 17 0;
#X connect 8 0 15 0;
#X connect 10 0 20 0;
#X connect 10 1 16 0;
#X connect 11 0 12 0;
#X connect 12 0 20 0;
#X connect 12 1 19 0;
#X connect 13 0 20 0;
#X connect 13 1 18 0;
#X connect 14 0 13 0;
#X connect 15 0 6 0;
#X connect 15 0 11 0;
#X connect 15 0 14 0;
#X connect 16 0 20 0;
#X connect 17 0 20 0;
#X connect 18 0 20 0;
#X connect 19 0 20 0;
#X connect 21 0 4 0;
#X connect 22 0 23 0;
#X connect 22 1 26 0;
#X connect 23 0 31 0;
#X connect 23 1 34 0;
#X connect 24 0 32 0;
#X connect 26 0 31 0;
#X connect 26 1 33 0;
#X connect 27 0 28 0;
#X connect 28 0 31 0;
#X connect 28 1 35 0;
#X connect 29 0 31 0;
#X connect 29 1 36 0;
#X connect 30 0 29 0;
#X connect 32 0 22 0;
#X connect 32 0 27 0;
#X connect 32 0 30 0;
#X connect 33 0 31 0;
#X connect 34 0 31 0;
#X connect 35 0 31 0;
#X connect 36 0 31 0;
#X connect 37 0 38 0;
#X connect 37 1 41 0;
#X connect 38 0 46 0;
#X connect 38 1 64 0;
#X connect 39 0 62 0;
#X connect 41 0 46 0;
#X connect 41 1 63 0;
#X connect 42 0 43 0;
#X connect 43 0 46 0;
#X connect 43 1 66 0;
#X connect 44 0 46 0;
#X connect 44 1 65 0;
#X connect 45 0 44 0;
#X connect 47 0 48 0;
#X connect 47 1 51 0;
#X connect 48 0 56 0;
#X connect 48 1 59 0;
#X connect 49 0 57 0;
#X connect 51 0 56 0;
#X connect 51 1 58 0;
#X connect 52 0 53 0;
#X connect 53 0 56 0;
#X connect 53 1 61 0;
#X connect 54 0 56 0;
#X connect 54 1 60 0;
#X connect 55 0 54 0;
#X connect 57 0 47 0;
#X connect 57 0 52 0;
#X connect 57 0 55 0;
#X connect 58 0 56 0;
#X connect 59 0 56 0;
#X connect 60 0 56 0;
#X connect 61 0 56 0;
#X connect 62 0 37 0;
#X connect 62 0 42 0;
#X connect 62 0 45 0;
#X connect 63 0 46 0;
#X connect 64 0 46 0;
#X connect 65 0 46 0;
#X connect 66 0 46 0;
#X connect 67 0 68 0;
#X connect 67 1 71 0;
#X connect 68 0 76 0;
#X connect 68 1 115 0;
#X connect 69 0 112 0;
#X connect 71 0 76 0;
#X connect 71 1 118 0;
#X connect 72 0 73 0;
#X connect 73 0 76 0;
#X connect 73 1 116 0;
#X connect 74 0 76 0;
#X connect 74 1 117 0;
#X connect 75 0 74 0;
#X connect 77 0 78 0;
#X connect 77 1 81 0;
#X connect 78 0 86 0;
#X connect 78 1 109 0;
#X connect 79 0 107 0;
#X connect 81 0 86 0;
#X connect 81 1 108 0;
#X connect 82 0 83 0;
#X connect 83 0 86 0;
#X connect 83 1 110 0;
#X connect 84 0 86 0;
#X connect 84 1 111 0;
#X connect 85 0 84 0;
#X connect 87 0 88 0;
#X connect 87 1 91 0;
#X connect 88 0 96 0;
#X connect 88 1 124 0;
#X connect 89 0 114 0;
#X connect 91 0 96 0;
#X connect 91 1 123 0;
#X connect 92 0 93 0;
#X connect 93 0 96 0;
#X connect 93 1 126 0;
#X connect 94 0 96 0;
#X connect 94 1 125 0;
#X connect 95 0 94 0;
#X connect 97 0 98 0;
#X connect 97 1 101 0;
#X connect 98 0 106 0;
#X connect 98 1 120 0;
#X connect 99 0 113 0;
#X connect 101 0 106 0;
#X connect 101 1 119 0;
#X connect 102 0 103 0;
#X connect 103 0 106 0;
#X connect 103 1 122 0;
#X connect 104 0 106 0;
#X connect 104 1 121 0;
#X connect 105 0 104 0;
#X connect 107 0 77 0;
#X connect 107 0 82 0;
#X connect 107 0 85 0;
#X connect 108 0 86 0;
#X connect 109 0 86 0;
#X connect 110 0 86 0;
#X connect 111 0 86 0;
#X connect 112 0 67 0;
#X connect 112 0 72 0;
#X connect 112 0 75 0;
#X connect 113 0 97 0;
#X connect 113 0 102 0;
#X connect 113 0 105 0;
#X connect 114 0 87 0;
#X connect 114 0 92 0;
#X connect 114 0 95 0;
#X connect 115 0 76 0;
#X connect 116 0 76 0;
#X connect 117 0 76 0;
#X connect 118 0 76 0;
#X connect 119 0 106 0;
#X connect 120 0 106 0;
#X connect 121 0 106 0;
#X connect 122 0 106 0;
#X connect 123 0 96 0;
#X connect 124 0 96 0;
#X connect 125 0 96 0;
#X connect 126 0 96 0;
#X connect 127 0 128 0;
#X connect 128 0 1 0;
#X restore 992 -140 pd osc_feedback;
#X obj 1113 -147 loadbang;
#X obj 1176 -44 list trim;
#X obj 1176 -23 s osc;
#X obj 1151 45 mtof;
#X obj 1155 20 hsl 128 15 0 127 0 0 empty empty empty -2 -8 0 10 -262144
-1 -1 0 1;
#X obj 1151 136 *~ 0.2;
#X obj 673 675 r osc;
#X obj 205 903 r osc;
#X obj 589 929 r osc;
#X obj 203 523 catch~ bus1;
#X obj 203 549 gain~;
#X obj 550 545 gain~;
#X obj 83 756 gain~;
#X obj 466 805 gain~;
#X obj 550 517 catch~ bus2;
#X obj 83 731 catch~ bus3;
#X obj 466 782 catch~ bus4;
#X obj 601 539 throw~ sub;
#X obj 252 552 throw~ sub;
#X obj 129 754 throw~ sub;
#X obj 516 804 throw~ sub;
#X obj 326 673 r osc;
#X obj 130 546 *~ 1;
#X obj 494 519 *~ 1;
#X obj 69 692 *~ 1;
#X obj 422 742 *~ 1;
#X obj 326 698 route panner5;
#X obj 673 700 route panner6;
#X obj 205 928 route panner7;
#X obj 589 954 route panner8;
#X obj 494 496 adc~ 6;
#X obj 69 669 adc~ 7;
#X obj 421 719 adc~ 8;
#X obj 130 523 adc~ 5;
#X msg 402 533 0;
#X obj 608 -80 s vbap_clock;
#X obj 607 -144 tgl 15 0 empty empty empty 17 7 0 10 -262144 -1 -1
1 1;
#X obj 1024 -34 mtof;
#X obj 1027 -59 hsl 128 15 0 127 0 0 empty empty empty -2 -8 0 10 -262144
-1 -1 0 1;
#X obj 583 210 spatialization_bus~ 2;
#X obj 236 217 spatialization_bus~ 1;
#X obj 838 353 spatialization_bus~ 1;
#X obj 124 489 spatialization_bus~ 3;
#X obj 499 469 spatialization_bus~ 4;
#X obj 203 743 spatialization_bus~ 5;
#X obj 550 736 spatialization_bus~ 6;
#X obj 82 959 spatialization_bus~ 7;
#X obj 466 995 spatialization_bus~ 8;
#X obj 609 -114 metro 20;
#X obj 1155 85 osc~ 440;
#X obj 698 -124 loadbang;
#X obj 1140 235 lop~ 150;
#X obj 1140 258 lop~ 150;
#X obj 1140 279 lop~ 150;
#X obj 1140 301 lop~ 150;
#X obj 990 -160 bng 15 250 50 0 empty empty empty 17 7 0 10 -262144
-1 -1;
#X obj 526 -24 adc~ 2;
#X text 18 -46 sid was at +20;
#X obj 197 -24 adc~ 1;
#X text 19 -26 chloe was at +10;
#X msg 435 7 -99;
#X obj 777 -62 print;
#X obj 863 -112 route a b c d e;
#X obj 835 -68 bng 15 250 50 0 empty empty empty 17 7 0 10 -262144
-1 -1;
#X obj 866 -67 bng 15 250 50 0 empty empty empty 17 7 0 10 -262144
-1 -1;
#X obj 893 -67 bng 15 250 50 0 empty empty empty 17 7 0 10 -262144
-1 -1;
#X obj 916 -67 bng 15 250 50 0 empty empty empty 17 7 0 10 -262144
-1 -1;
#X obj 941 -68 bng 15 250 50 0 empty empty empty 17 7 0 10 -262144
-1 -1;
#X connect 2 0 60 0;
#X connect 3 0 2 0;
#X connect 4 0 3 0;
#X connect 5 0 6 0;
#X connect 6 0 98 1;
#X connect 7 0 8 0;
#X connect 9 0 11 0;
#X connect 10 0 12 0;
#X connect 11 0 101 1;
#X connect 12 0 102 1;
#X connect 14 0 100 1;
#X connect 15 0 14 0;
#X connect 16 0 17 0;
#X connect 16 0 29 0;
#X connect 17 0 99 0;
#X connect 18 0 98 0;
#X connect 19 0 101 0;
#X connect 20 0 102 0;
#X connect 21 0 100 0;
#X connect 22 0 18 0;
#X connect 22 0 28 0;
#X connect 23 0 19 0;
#X connect 23 0 30 0;
#X connect 24 0 20 0;
#X connect 24 0 31 0;
#X connect 25 0 21 0;
#X connect 25 0 32 0;
#X connect 27 0 26 0;
#X connect 27 0 26 1;
#X connect 33 0 110 0;
#X connect 34 0 35 0;
#X connect 35 0 99 1;
#X connect 36 0 17 0;
#X connect 36 0 29 0;
#X connect 37 0 18 0;
#X connect 37 0 28 0;
#X connect 38 0 19 0;
#X connect 38 0 30 0;
#X connect 39 0 20 0;
#X connect 39 0 31 0;
#X connect 45 0 38 0;
#X connect 46 0 39 0;
#X connect 47 0 42 0;
#X connect 47 1 42 0;
#X connect 48 0 43 0;
#X connect 48 1 43 0;
#X connect 49 0 48 0;
#X connect 50 0 48 0;
#X connect 51 0 48 0;
#X connect 52 0 48 0;
#X connect 53 0 48 0;
#X connect 54 0 55 0;
#X connect 55 0 121 0;
#X connect 57 0 3 0;
#X connect 59 0 57 0;
#X connect 60 0 61 0;
#X connect 62 0 108 0;
#X connect 63 0 62 0;
#X connect 65 0 86 0;
#X connect 66 0 87 0;
#X connect 67 0 88 0;
#X connect 68 0 69 0;
#X connect 68 0 77 0;
#X connect 69 0 103 0;
#X connect 70 0 104 0;
#X connect 71 0 105 0;
#X connect 72 0 106 0;
#X connect 73 0 70 0;
#X connect 73 0 76 0;
#X connect 74 0 71 0;
#X connect 74 0 78 0;
#X connect 75 0 72 0;
#X connect 75 0 79 0;
#X connect 80 0 85 0;
#X connect 81 0 69 0;
#X connect 81 0 77 0;
#X connect 82 0 70 0;
#X connect 82 0 76 0;
#X connect 83 0 71 0;
#X connect 83 0 78 0;
#X connect 84 0 72 0;
#X connect 84 0 79 0;
#X connect 85 0 103 1;
#X connect 86 0 104 1;
#X connect 87 0 105 1;
#X connect 88 0 106 1;
#X connect 89 0 82 0;
#X connect 90 0 83 0;
#X connect 91 0 84 0;
#X connect 92 0 81 0;
#X connect 93 0 69 1;
#X connect 93 0 70 1;
#X connect 93 0 71 1;
#X connect 93 0 72 1;
#X connect 95 0 107 0;
#X connect 97 0 96 0;
#X connect 107 0 94 0;
#X connect 108 0 64 0;
#X connect 110 0 111 0;
#X connect 111 0 112 0;
#X connect 112 0 113 0;
#X connect 113 0 27 0;
#X connect 114 0 58 0;
#X connect 115 0 37 0;
#X connect 117 0 36 0;
#X connect 119 0 18 1;
#X connect 119 0 19 1;
#X connect 119 0 20 1;
#X connect 119 0 21 1;
#X connect 119 0 93 0;
#X connect 119 0 17 1;
#X connect 121 0 122 0;
#X connect 121 1 123 0;
#X connect 121 2 124 0;
#X connect 121 3 125 0;
#X connect 121 4 126 0;
#X connect 122 0 49 0;
#X connect 123 0 50 0;
#X connect 124 0 51 0;
#X connect 125 0 52 0;
#X connect 126 0 53 0;
