#N canvas 88 56 1140 552 10;
#X obj 223 413 circle_panner~, f 25;
#X obj 350 348 hsl 128 15 0 127 0 0 empty empty azimuth -2 -8 0 10
-262144 -1 -1 300 1;
#X obj 506 347 hsl 128 15 0 127 0 0 empty empty spread -2 -8 0 10 -262144
-1 -1 786 1;
#X obj 7 105 nbx 5 14 -1e+37 1e+37 0 0 empty empty empty 0 -8 0 10
-262144 -1 -1 3 256;
#X obj 114 171 scale 0 127 127 0;
#X obj 114 201 nbx 5 14 -1e+37 1e+37 0 0 empty empty empty 0 -8 0 10
-262144 -1 -1 124 256;
#X obj 337 153 nbx 5 14 -1e+37 1e+37 0 0 empty empty empty 0 -8 0 10
-262144 -1 -1 118 256;
#X obj 336 89 metro 1000;
#X obj 336 63 tgl 15 0 empty empty empty 17 7 0 10 -262144 -1 -1 1
1;
#X obj 175 27 hsl 128 15 0 127 0 0 empty empty empty -2 -8 0 10 -262144
-1 -1 500 1;
#X msg 336 37 1;
#X obj 336 13 loadbang;
#X obj 337 124 random 127;
#X obj 114 95 metro 1000;
#X obj 114 119 f;
#X obj 144 119 + 1;
#X obj 114 145 mod 127;
#X obj 472 76 scale 0 360 0 127;
#X obj 505 137 scale 0 1 127 0;
#X floatatom 216 97 5 0 0 0 - - -, f 5;
#X floatatom 407 90 5 0 0 0 - - -, f 5;
#X obj 358 232 spigot;
#X obj 390 202 tgl 15 0 empty empty empty 17 7 0 10 -262144 -1 -1 0
1;
#X obj 122 251 spigot;
#X obj 154 221 tgl 15 0 empty empty empty 17 7 0 10 -262144 -1 -1 0
1;
#X obj 42 156 spigot;
#X obj 74 126 tgl 15 0 empty empty empty 17 7 0 10 -262144 -1 -1 1
1;
#X obj 419 295 spigot;
#X obj 450 267 tgl 15 0 empty empty empty 17 7 0 10 -262144 -1 -1 1
1;
#X obj 852 162 s lfo-0;
#X obj 903 163 s lfo-1;
#X obj 865 188 s lfo-2;
#X obj 920 187 s lfo-3;
#X obj 896 42 sel 0 1 2 3;
#X msg 829 106 0;
#X msg 858 105 1;
#X msg 892 105 0;
#X msg 921 104 1;
#X msg 956 104 0;
#X msg 985 103 1;
#X msg 1014 104 0;
#X msg 1043 103 1;
#X obj 994 -4 hradio 15 1 0 4 empty empty empty 0 -8 0 10 -262144 -1
-1 3;
#X obj 669 -5 unpack f f f;
#X obj 673 -28 route lfos;
#X obj 896 16 route lfos;
#X obj 172 -49 route lfo_speed;
#X obj 393 64 * 4;
#X obj 23 -49 inlet~;
#X obj 473 -63 inlet control;
#X obj 669 38 s \$0-lfo-1;
#X obj 606 62 s \$0-lfo-2;
#X obj 685 62 s \$0-lfo-3;
#X obj 51 56 r \$0-lfo-1;
#X obj 177 195 r \$0-lfo-2;
#X obj 392 176 r \$0-lfo-3;
#X obj 452 237 loadbang;
#X obj 172 50 scale 1.27 127 0 1000;
#X obj 172 -2 scale 0 1 127 5;
#X obj 472 43 xy2deg;
#X obj 664 143 deg2xy \$1;
#X connect 1 0 0 1;
#X connect 2 0 0 2;
#X connect 4 0 5 0;
#X connect 4 0 23 0;
#X connect 6 0 21 0;
#X connect 7 0 12 0;
#X connect 8 0 7 0;
#X connect 8 0 13 0;
#X connect 9 0 57 0;
#X connect 10 0 8 0;
#X connect 11 0 10 0;
#X connect 12 0 6 0;
#X connect 13 0 14 0;
#X connect 14 0 15 0;
#X connect 14 0 16 0;
#X connect 15 0 14 1;
#X connect 16 0 4 0;
#X connect 16 0 3 0;
#X connect 16 0 25 0;
#X connect 17 0 27 0;
#X connect 18 0 2 0;
#X connect 21 0 1 0;
#X connect 21 0 60 0;
#X connect 22 0 21 1;
#X connect 23 0 1 0;
#X connect 23 0 60 0;
#X connect 24 0 23 1;
#X connect 25 0 1 0;
#X connect 25 0 60 0;
#X connect 26 0 25 1;
#X connect 27 0 1 0;
#X connect 28 0 27 1;
#X connect 33 0 35 0;
#X connect 33 0 34 0;
#X connect 33 1 37 0;
#X connect 33 1 36 0;
#X connect 33 2 39 0;
#X connect 33 2 38 0;
#X connect 33 3 40 0;
#X connect 33 3 41 0;
#X connect 34 0 31 0;
#X connect 34 0 30 0;
#X connect 34 0 32 0;
#X connect 35 0 29 0;
#X connect 36 0 29 0;
#X connect 36 0 31 0;
#X connect 36 0 32 0;
#X connect 37 0 30 0;
#X connect 38 0 29 0;
#X connect 38 0 30 0;
#X connect 38 0 32 0;
#X connect 39 0 31 0;
#X connect 40 0 30 0;
#X connect 40 0 29 0;
#X connect 40 0 31 0;
#X connect 41 0 32 0;
#X connect 42 0 33 0;
#X connect 43 0 50 0;
#X connect 43 1 51 0;
#X connect 43 2 52 0;
#X connect 44 0 43 0;
#X connect 45 0 33 0;
#X connect 46 0 58 0;
#X connect 47 0 7 1;
#X connect 47 0 20 0;
#X connect 48 0 0 0;
#X connect 49 0 44 0;
#X connect 49 0 46 0;
#X connect 49 0 59 0;
#X connect 49 0 60 1;
#X connect 53 0 26 0;
#X connect 54 0 24 0;
#X connect 55 0 22 0;
#X connect 56 0 28 0;
#X connect 57 0 13 1;
#X connect 57 0 47 0;
#X connect 57 0 19 0;
#X connect 58 0 9 0;
#X connect 59 0 17 0;
#X connect 59 1 18 0;
