#N canvas 232 8 1127 603 10;
#X floatatom 136 15 5 0 359 0 - - -, f 5;
#X obj 95 111 sin;
#X obj 148 114 cos;
#X floatatom 147 138 5 -1 1 0 - - -, f 5;
#X floatatom 92 155 5 -1 1 0 - - -, f 5;
#X obj 148 214 - 1.5707;
#X obj 148 351 * -1;
#X obj 204 351 + 360;
#X obj 148 313 int;
#X floatatom 69 411 5 0 359 0 - - -, f 5;
#X obj 149 182 expr asin($f1);
#X obj 148 249 * 57.2958;
#X obj 136 46 * 0.017453;
#X obj 148 287 + 0.4999;
#X floatatom 452 318 5 0 0 0 - - -, f 5;
#X obj 402 226 route x y;
#X floatatom 396 316 5 0 0 0 - - -, f 5;
#X obj 396 263 - 0.5;
#X obj 452 258 - 0.5;
#X obj 396 290 * 2;
#X obj 452 290 * 2;
#X floatatom 497 502 5 0 0 0 - - -, f 5;
#X obj 497 475 *;
#X obj 497 442 t f f;
#X obj 548 474 *;
#X obj 548 441 t f f;
#X floatatom 548 502 5 0 0 0 - - -, f 5;
#X obj 69 383 expr if($f1 >= 0 \, $f2 \, $f3);
#X obj 497 527 +;
#X obj 134 78 t f f;
#X floatatom 496 578 5 0 0 0 - - -, f 5;
#X obj 497 553 sqrt;
#X obj 68 438 outlet;
#X obj 495 622 outlet;
#X obj 265 569 /;
#X obj 258 516 t b f;
#X floatatom 265 603 5 0 0 0 - - -, f 5;
#X obj 131 569 /;
#X obj 155 517 t b f;
#X floatatom 131 603 5 0 0 0 - - -, f 5;
#X obj 444 607 f;
#X obj 418 533 t f f;
#X obj 418 580 sel 1;
#X obj 418 557 != 0;
#X obj 381 353 f;
#X obj 437 353 f;
#X obj 337 52 inlet;
#X connect 0 0 12 0;
#X connect 1 0 4 0;
#X connect 2 0 3 0;
#X connect 4 0 27 0;
#X connect 5 0 11 0;
#X connect 6 0 27 1;
#X connect 7 0 27 2;
#X connect 8 0 6 0;
#X connect 8 0 7 0;
#X connect 9 0 32 0;
#X connect 10 0 5 0;
#X connect 11 0 13 0;
#X connect 12 0 29 0;
#X connect 13 0 8 0;
#X connect 14 0 25 0;
#X connect 14 0 45 1;
#X connect 15 0 17 0;
#X connect 15 1 18 0;
#X connect 16 0 23 0;
#X connect 16 0 44 1;
#X connect 17 0 19 0;
#X connect 18 0 20 0;
#X connect 19 0 16 0;
#X connect 20 0 14 0;
#X connect 21 0 28 0;
#X connect 22 0 21 0;
#X connect 23 0 22 0;
#X connect 23 1 22 1;
#X connect 24 0 26 0;
#X connect 25 0 24 0;
#X connect 25 1 24 1;
#X connect 26 0 28 1;
#X connect 27 0 9 0;
#X connect 28 0 31 0;
#X connect 29 0 1 0;
#X connect 29 1 2 0;
#X connect 30 0 33 0;
#X connect 30 0 41 0;
#X connect 31 0 30 0;
#X connect 34 0 10 0;
#X connect 34 0 36 0;
#X connect 35 0 45 0;
#X connect 35 1 34 1;
#X connect 37 0 39 0;
#X connect 37 0 4 0;
#X connect 38 0 44 0;
#X connect 38 1 37 1;
#X connect 40 0 35 0;
#X connect 40 0 38 0;
#X connect 41 0 43 0;
#X connect 41 1 40 1;
#X connect 42 0 40 0;
#X connect 43 0 42 0;
#X connect 44 0 37 0;
#X connect 45 0 34 0;
#X connect 46 0 15 0;
