#N canvas 177 128 1664 754 10;
#X obj 229 707 dac~ 1 2 3 4 5 6 7 8 9 10 11 12 13 14 15 16 17 18 19
20 21 22 23 24 25 26 27 28 29 30 31 32, f 97;
#X obj 68 581 *~;
#X obj 100 581 *~;
#X obj 129 580 *~;
#X obj 161 580 *~;
#X obj 190 580 *~;
#X obj 222 580 *~;
#X obj 251 579 *~;
#X obj 283 579 *~;
#X obj 313 579 *~;
#X obj 345 579 *~;
#X obj 374 578 *~;
#X obj 406 578 *~;
#X obj 435 578 *~;
#X obj 467 578 *~;
#X obj 496 577 *~;
#X obj 528 577 *~;
#X obj 560 577 *~;
#X obj 592 577 *~;
#X obj 621 576 *~;
#X obj 653 576 *~;
#X obj 682 576 *~;
#X obj 714 576 *~;
#X obj 743 575 *~;
#X obj 775 575 *~;
#X obj 805 575 *~;
#X obj 837 575 *~;
#X obj 866 574 *~;
#X obj 896 573 *~;
#X obj 926 573 *~;
#X obj 958 573 *~;
#X obj 987 572 *~;
#X obj 619 287 route 0 1 2 3 4 5 6 7 8 9 10 11 12 13 14 15 16 17 18
19 20 21 22 23 24 25 26 27 28 29 30 31, f 101;
#X obj 293 189 vbap 0 0 30;
#X obj 451 86 hsl 128 15 -180 180 0 0 empty empty azimuth -2 -8 0 10
-262144 -1 -1 2400 1;
#X floatatom 448 117 5 0 0 0 - - -, f 5;
#X obj 228 96 tgl 15 0 empty empty empty 17 7 0 10 -262144 -1 -1 1
1;
#X obj 228 120 metro 100;
#X obj 228 69 loadbang;
#X obj 736 84 hsl 128 15 0 100 0 0 empty empty spread -2 -8 0 10 -262144
-1 -1 0 1;
#X floatatom 733 106 5 0 0 0 - - -, f 5;
#X msg 50 -5 define_loudspeakers 2 0 11.25 22.5 33.75 45 56.25 67.5
78.75 90 101.25 112.5 123.75 135 146.25 157.5 168.75 180 191.25 202.5
213.75 225 236.25 247.5 258.75 270 281.25 292.5 303.75 315 326.25 337.5
348.75;
#X obj 24 304 *~ 0.2;
#X obj 1014 571 *~;
#X floatatom 346 383 5 0 0 0 - - -, f 5;
#X floatatom 386 383 5 0 0 0 - - -, f 5;
#X floatatom 423 383 5 0 0 0 - - -, f 5;
#X floatatom 463 383 5 0 0 0 - - -, f 5;
#X floatatom 500 382 5 0 0 0 - - -, f 5;
#X floatatom 540 382 5 0 0 0 - - -, f 5;
#X floatatom 577 382 5 0 0 0 - - -, f 5;
#X floatatom 614 382 5 0 0 0 - - -, f 5;
#X floatatom 650 381 5 0 0 0 - - -, f 5;
#X floatatom 690 381 5 0 0 0 - - -, f 5;
#X floatatom 727 381 5 0 0 0 - - -, f 5;
#X floatatom 765 381 5 0 0 0 - - -, f 5;
#X floatatom 804 380 5 0 0 0 - - -, f 5;
#X floatatom 844 380 5 0 0 0 - - -, f 5;
#X floatatom 881 380 5 0 0 0 - - -, f 5;
#X floatatom 918 380 5 0 0 0 - - -, f 5;
#X floatatom 954 380 5 0 0 0 - - -, f 5;
#X floatatom 990 379 5 0 0 0 - - -, f 5;
#X floatatom 1030 379 5 0 0 0 - - -, f 5;
#X floatatom 1067 379 5 0 0 0 - - -, f 5;
#X floatatom 1105 379 5 0 0 0 - - -, f 5;
#X floatatom 1144 378 5 0 0 0 - - -, f 5;
#X floatatom 1184 378 5 0 0 0 - - -, f 5;
#X floatatom 1221 378 5 0 0 0 - - -, f 5;
#X floatatom 1258 378 5 0 0 0 - - -, f 5;
#X floatatom 1296 378 5 0 0 0 - - -, f 5;
#X floatatom 1332 377 5 0 0 0 - - -, f 5;
#X floatatom 1372 377 5 0 0 0 - - -, f 5;
#X floatatom 1409 377 5 0 0 0 - - -, f 5;
#X floatatom 1447 377 5 0 0 0 - - -, f 5;
#X floatatom 1486 376 5 0 0 0 - - -, f 5;
#X floatatom 1526 376 5 0 0 0 - - -, f 5;
#X text 202 205 requires pddp and vbap externals installed via help/find
externals;
#X text 961 -13 vbap 32 channel panner for unityGain;
#X text 961 4 PCC Cascade \, Music and Sonic Arts;
#X text 961 20 Jesse Mejia 2017;
#X text 58 49 defines a 2D array \, and a list of loudspeaker angles
;
#X obj 24 229 inlet~;
#X obj 448 -26 inlet;
#X obj 448 -2 / 127;
#X obj 448 22 * 360;
#X obj 448 46 - 180;
#X text 487 23 scales 0-127 to -180 - 180;
#X obj 733 -15 inlet;
#X obj 733 13 / 127;
#X obj 733 37 * 100;
#X connect 1 0 0 0;
#X connect 2 0 0 1;
#X connect 3 0 0 2;
#X connect 4 0 0 3;
#X connect 5 0 0 4;
#X connect 6 0 0 5;
#X connect 7 0 0 6;
#X connect 8 0 0 7;
#X connect 9 0 0 8;
#X connect 10 0 0 9;
#X connect 11 0 0 10;
#X connect 12 0 0 11;
#X connect 13 0 0 12;
#X connect 14 0 0 13;
#X connect 15 0 0 14;
#X connect 16 0 0 15;
#X connect 17 0 0 16;
#X connect 18 0 0 17;
#X connect 19 0 0 18;
#X connect 20 0 0 19;
#X connect 21 0 0 20;
#X connect 22 0 0 21;
#X connect 23 0 0 22;
#X connect 24 0 0 23;
#X connect 25 0 0 24;
#X connect 26 0 0 25;
#X connect 27 0 0 26;
#X connect 28 0 0 27;
#X connect 29 0 0 28;
#X connect 30 0 0 29;
#X connect 31 0 0 30;
#X connect 32 0 1 1;
#X connect 32 0 44 0;
#X connect 32 1 2 1;
#X connect 32 1 45 0;
#X connect 32 2 3 1;
#X connect 32 2 46 0;
#X connect 32 3 4 1;
#X connect 32 3 47 0;
#X connect 32 4 5 1;
#X connect 32 4 48 0;
#X connect 32 5 6 1;
#X connect 32 5 49 0;
#X connect 32 6 7 1;
#X connect 32 6 50 0;
#X connect 32 7 8 1;
#X connect 32 7 51 0;
#X connect 32 8 9 1;
#X connect 32 8 52 0;
#X connect 32 9 10 1;
#X connect 32 9 53 0;
#X connect 32 10 11 1;
#X connect 32 10 54 0;
#X connect 32 11 12 1;
#X connect 32 11 55 0;
#X connect 32 12 13 1;
#X connect 32 12 56 0;
#X connect 32 13 14 1;
#X connect 32 13 57 0;
#X connect 32 14 15 1;
#X connect 32 14 58 0;
#X connect 32 15 16 1;
#X connect 32 15 59 0;
#X connect 32 16 17 1;
#X connect 32 16 60 0;
#X connect 32 17 18 1;
#X connect 32 17 61 0;
#X connect 32 18 19 1;
#X connect 32 18 62 0;
#X connect 32 19 20 1;
#X connect 32 19 63 0;
#X connect 32 20 21 1;
#X connect 32 20 64 0;
#X connect 32 21 22 1;
#X connect 32 21 65 0;
#X connect 32 22 23 1;
#X connect 32 22 66 0;
#X connect 32 23 24 1;
#X connect 32 23 67 0;
#X connect 32 24 25 1;
#X connect 32 24 68 0;
#X connect 32 25 26 1;
#X connect 32 25 69 0;
#X connect 32 26 27 1;
#X connect 32 26 70 0;
#X connect 32 27 28 1;
#X connect 32 27 71 0;
#X connect 32 28 29 1;
#X connect 32 28 72 0;
#X connect 32 29 30 1;
#X connect 32 29 73 0;
#X connect 32 30 31 1;
#X connect 32 30 74 0;
#X connect 32 31 43 1;
#X connect 32 31 75 0;
#X connect 33 0 32 0;
#X connect 34 0 35 0;
#X connect 35 0 33 1;
#X connect 36 0 37 0;
#X connect 37 0 33 0;
#X connect 38 0 36 0;
#X connect 38 0 41 0;
#X connect 39 0 40 0;
#X connect 40 0 33 3;
#X connect 41 0 33 0;
#X connect 42 0 1 0;
#X connect 42 0 2 0;
#X connect 42 0 3 0;
#X connect 42 0 4 0;
#X connect 42 0 5 0;
#X connect 42 0 6 0;
#X connect 42 0 7 0;
#X connect 42 0 8 0;
#X connect 42 0 9 0;
#X connect 42 0 10 0;
#X connect 42 0 11 0;
#X connect 42 0 12 0;
#X connect 42 0 13 0;
#X connect 42 0 14 0;
#X connect 42 0 15 0;
#X connect 42 0 16 0;
#X connect 42 0 17 0;
#X connect 42 0 18 0;
#X connect 42 0 19 0;
#X connect 42 0 20 0;
#X connect 42 0 21 0;
#X connect 42 0 22 0;
#X connect 42 0 23 0;
#X connect 42 0 24 0;
#X connect 42 0 25 0;
#X connect 42 0 26 0;
#X connect 42 0 27 0;
#X connect 42 0 28 0;
#X connect 42 0 29 0;
#X connect 42 0 30 0;
#X connect 42 0 31 0;
#X connect 42 0 43 0;
#X connect 43 0 0 31;
#X connect 81 0 42 0;
#X connect 82 0 83 0;
#X connect 83 0 84 0;
#X connect 84 0 85 0;
#X connect 85 0 34 0;
#X connect 87 0 88 0;
#X connect 88 0 89 0;
#X connect 89 0 39 0;
